<svg width="228" height="288" viewBox="0 0 228 288" fill="none" xmlns="http://www.w3.org/2000/svg">
<circle cx="114" cy="162" r="114" fill="white"/>
<path d="M95.8 203C87.1333 203 79.5333 200.867 73 196.6C66.6 192.2 61.6667 186 58.2 178C54.7333 170 53 160.667 53 150C53 139.333 54.7333 130 58.2 122C61.6667 114 66.6 107.867 73 103.6C79.5333 99.2 87.1333 97 95.8 97C104.467 97 112 99.2 118.4 103.6C124.933 107.867 129.933 114 133.4 122C136.867 130 138.6 139.333 138.6 150C138.6 160.667 136.867 170 133.4 178C129.933 186 124.933 192.2 118.4 196.6C112 200.867 104.467 203 95.8 203ZM95.8 197C106.6 197 115.133 192.8 121.4 184.4C127.8 175.867 131 164.4 131 150C131 135.6 127.8 124.2 121.4 115.8C115.133 107.267 106.6 103 95.8 103C85 103 76.4 107.267 70 115.8C63.7333 124.2 60.6 135.6 60.6 150C60.6 164.4 63.7333 175.867 70 184.4C76.4 192.8 85 197 95.8 197Z" fill="#3E4753"/>
<path d="M126.8 231C118.133 231 110.533 228.867 104 224.6C97.6 220.2 92.6667 214 89.2 206C85.7333 198 84 188.667 84 178C84 167.333 85.7333 158 89.2 150C92.6667 142 97.6 135.867 104 131.6C110.533 127.2 118.133 125 126.8 125C135.467 125 143 127.2 149.4 131.6C155.933 135.867 160.933 142 164.4 150C167.867 158 169.6 167.333 169.6 178C169.6 188.667 167.867 198 164.4 206C160.933 214 155.933 220.2 149.4 224.6C143 228.867 135.467 231 126.8 231ZM126.8 225C137.6 225 146.133 220.8 152.4 212.4C158.8 203.867 162 192.4 162 178C162 163.6 158.8 152.2 152.4 143.8C146.133 135.267 137.6 131 126.8 131C116 131 107.4 135.267 101 143.8C94.7333 152.2 91.6 163.6 91.6 178C91.6 192.4 94.7333 203.867 101 212.4C107.4 220.8 116 225 126.8 225Z" fill="#7C2828"/>
<path d="M151 71L76 257" stroke="white" stroke-width="23"/>
<path d="M161.5 177.5C161.5 203.457 149.5 224.5 126.5 224.5C103.5 224.5 91.5001 205.5 91.5001 177.5C91.5001 149.5 104.5 130.5 126.5 130.5C148.5 130.5 161.5 151.543 161.5 177.5Z" fill="white"/>
<path d="M131 150C131 175.957 119 197 96 197C73 197 61 178 61 150C61 122 72.5 103 96 103C119.5 103 131 124.043 131 150Z" fill="white"/>
<rect width="199.163" height="3.56876" rx="1.78438" transform="matrix(0.373813 -0.927504 0.941383 0.33734 74.5846 255.627)" fill="#3E4753"/>
</svg>
